<svg width="1381" height="735" viewBox="0 0 1381 735" fill="none" xmlns="http://www.w3.org/2000/svg">
<g clip-path="url(#clip0_2_2)">
<rect width="1381" height="735" fill="white"/>
<rect x="-33.5939" width="305.903" height="32.6297" rx="12" fill="#F1F8FF"/>
<rect x="-141" y="228.408" width="221.61" height="32.6297" rx="12" fill="#F1F8FF"/>
<rect x="-6.40253" y="516.637" width="278.712" height="32.6297" rx="12" fill="#F1F8FF"/>
<rect x="313.097" y="516.637" width="91.0912" height="32.6297" rx="12" fill="#F1F8FF"/>
<rect x="526.549" y="516.637" width="144.114" height="32.6297" rx="12" fill="#F1F8FF"/>
<rect x="711.451" y="516.637" width="44.8658" height="32.6297" rx="12" fill="#F1F8FF"/>
<rect x="933.061" y="516.637" width="210.733" height="32.6297" rx="12" fill="#F1F8FF"/>
<rect x="1278.39" y="516.637" width="210.733" height="32.6297" rx="12" fill="#F1F8FF"/>
<rect x="992.882" y="727.37" width="81.5742" height="32.6297" rx="12" fill="#F1F8FF"/>
<rect x="132.274" y="727.37" width="231.127" height="32.6297" rx="12" fill="#F1F8FF"/>
<rect x="432.739" y="727.37" width="156.351" height="32.6297" rx="12" fill="#F1F8FF"/>
<rect x="1115.24" y="727.37" width="224.329" height="32.6297" rx="12" fill="#F1F8FF"/>
<rect x="121.397" y="228.408" width="73.4168" height="32.6297" rx="12" fill="#F1F8FF"/>
<rect x="337.569" y="228.408" width="126.44" height="32.6297" rx="12" fill="#F1F8FF"/>
<rect x="504.796" y="228.408" width="43.5063" height="32.6297" rx="12" fill="#F1F8FF"/>
<rect x="589.089" y="228.408" width="206.655" height="32.6297" rx="12" fill="#F1F8FF"/>
<rect x="1005.12" y="228.408" width="212.093" height="32.6297" rx="12" fill="#F1F8FF"/>
<rect x="313.097" width="50.3041" height="32.6297" rx="12" fill="#F1F8FF"/>
<rect x="404.188" width="110.125" height="32.6297" rx="12" fill="#F1F8FF"/>
<rect x="646.191" width="186.261" height="32.6297" rx="12" fill="#F1F8FF"/>
<rect x="873.24" width="330.376" height="32.6297" rx="12" fill="#F1F8FF"/>
<rect x="1244.4" width="67.9785" height="32.6297" rx="12" fill="#F1F8FF"/>
<rect x="124" y="70" width="225" height="24" rx="12" fill="#AAD5FD"/>
<rect x="45" y="238" width="163" height="24" rx="12" fill="#AAD5FD"/>
<rect x="84" y="450" width="30" height="24" rx="12" fill="#BCF3FF"/>
<rect x="144" y="450" width="205" height="24" rx="12" fill="#AAD5FD"/>
<rect x="379" y="450" width="67" height="24" rx="12" fill="#DDD1FF"/>
<rect x="536" y="450" width="106" height="24" rx="12" fill="#AAD5FD"/>
<rect x="672" y="450" width="33" height="24" rx="12" fill="#AAD5FD"/>
<rect x="835" y="450" width="155" height="24" rx="12" fill="#BCF3FF"/>
<rect x="1089" y="450" width="155" height="24" rx="12" fill="#AAD5FD"/>
<rect x="879" y="605" width="60" height="24" rx="12" fill="#AAD5FD"/>
<rect x="246" y="605" width="170" height="24" rx="12" fill="#DDD1FF"/>
<rect x="467" y="605" width="115" height="24" rx="12" fill="#BCF3FF"/>
<rect x="969" y="605" width="165" height="24" rx="12" fill="#AAD5FD"/>
<rect x="238" y="238" width="54" height="24" rx="12" fill="#BCF3FF"/>
<rect x="397" y="238" width="93" height="24" rx="12" fill="#AAD5FD"/>
<rect x="520" y="238" width="32" height="24" rx="12" fill="#DDD1FF"/>
<rect x="582" y="238" width="152" height="24" rx="12" fill="#AAD5FD"/>
<rect x="888" y="238" width="156" height="24" rx="12" fill="#DDD1FF"/>
<rect x="1199" y="238" width="45" height="24" rx="12" fill="#AAD5FD"/>
<rect x="379" y="70" width="37" height="24" rx="12" fill="#DDD1FF"/>
<rect x="446" y="70" width="81" height="24" rx="12" fill="#AAD5FD"/>
<rect x="624" y="70" width="137" height="24" rx="12" fill="#BCF3FF"/>
<rect x="791" y="70" width="243" height="24" rx="12" fill="#AAD5FD"/>
<rect x="1064" y="70" width="50" height="24" rx="12" fill="#AAD5FD"/>
<rect x="1198" y="70" width="91" height="24" rx="12" fill="#DDD1FF"/>
<rect x="128" y="63" width="225" height="24" rx="12" fill="#44A5FF"/>
<rect x="49" y="231" width="163" height="24" rx="12" fill="#44A5FF"/>
<rect x="88" y="443" width="30" height="24" rx="12" fill="#44DDFF"/>
<rect x="148" y="443" width="205" height="24" rx="12" fill="#44A5FF"/>
<rect x="839" y="443" width="155" height="24" rx="12" fill="#44DDFF"/>
<rect x="1093" y="443" width="155" height="24" rx="12" fill="#44A5FF"/>
<rect x="883" y="598" width="60" height="24" rx="12" fill="#44A5FF"/>
<rect x="250" y="598" width="170" height="24" rx="12" fill="#7544FF"/>
<rect x="973" y="598" width="165" height="24" rx="12" fill="#44A5FF"/>
<rect x="242" y="231" width="54" height="24" rx="12" fill="#44DDFF"/>
<rect x="892" y="231" width="156" height="24" rx="12" fill="#7544FF"/>
<rect x="1203" y="231" width="45" height="24" rx="12" fill="#44A5FF"/>
<rect x="383" y="63" width="37" height="24" rx="12" fill="#7544FF"/>
<rect x="450" y="63" width="81" height="24" rx="12" fill="#44A5FF"/>
<rect x="1068" y="63" width="50" height="24" rx="12" fill="#44A5FF"/>
<rect x="1202" y="63" width="91" height="24" rx="12" fill="#7544FF"/>
</g>
<defs>
<clipPath id="clip0_2_2">
<rect width="1381" height="735" fill="white"/>
</clipPath>
</defs>
</svg>
